<svg xmlns="http://www.w3.org/2000/svg" xmlns:xlink="http://www.w3.org/1999/xlink" width="870.678" height="407.48" viewBox="0 0 870.678 407.48">
  <defs>
    <linearGradient id="linear-gradient" x1="0.5" x2="0.5" y2="1" gradientUnits="objectBoundingBox">
      <stop offset="0" stop-color="#f99b2d"/>
      <stop offset="1" stop-color="#fb5b1d"/>
    </linearGradient>
    <linearGradient id="linear-gradient-2" x1="1.039" y1="1.406" x2="0.179" y2="-0.08" gradientUnits="objectBoundingBox">
      <stop offset="0" stop-color="#fc4a1a"/>
      <stop offset="1" stop-color="#f7b733"/>
    </linearGradient>
    <linearGradient id="linear-gradient-3" x1="0.086" y1="0.459" x2="1.814" y2="0.622" gradientUnits="objectBoundingBox">
      <stop offset="0" stop-color="#fff" stop-opacity="0"/>
      <stop offset="1" stop-color="#fff"/>
    </linearGradient>
  </defs>
  <g id="Group_90245" data-name="Group 90245" transform="translate(1357.678 -6422.137)">
    <g id="Group_90243" data-name="Group 90243" transform="translate(-1357.678 6422.137)">
      <g id="Group_90235" data-name="Group 90235">
        <path id="Path_149745" data-name="Path 149745" d="M169.962,40.26h38.771q33.636-45.19,51.224-78.826t17.588-44.163q0-14.635-25.163-14.635-14.635,1.284-51.866,6.291t-72.15,11.939q-31.325,5.905-50.2,12.2T51.6-56.539q-7.7,4.108-9.5,5.906,19-1.027,32.1-1.027,20.541,0,20.541,4.622,0,2.054-14.379,5.264t-27.217,6.8A236.657,236.657,0,0,0,28.615-26.5q-11.939,4.878-14.507,4.878a12.3,12.3,0,0,1-9.757-4.493A16.2,16.2,0,0,1,.5-37.025q0-4.365,7.061-22.723a177.929,177.929,0,0,1,19.9-36.974Q40.3-115.337,59.3-124.324q6.933-3.338,44.291-12.068t84.346-15.919q46.987-7.189,86.015-7.189,23.622,0,37.872,6.547t14.25,28.115q0,6.933-5.135,21.44t-16.3,37.1q-11.169,22.6-27.217,49.555t-36.588,57H280.37L246.221,89.3q-6.933.514-17.331.77t-22.723.77a743.44,743.44,0,0,1-68.427,77.285q-36.845,36.2-66.758,58.028T29,247.98a12.308,12.308,0,0,1-8.473-3.21,10.664,10.664,0,0,1-3.595-8.345q0-4.365,11.426-22.338t31.71-33.636a83.413,83.413,0,0,1,46.217-17.46q10.527-11.041,18.1-19.642t21.44-24.906q13.865-16.3,21.311-25.034L89.853,97.261q-12.581.514-17.331-1.155t-4.75-8.345l2.568-6.547a84.364,84.364,0,0,1,5.392-11.426q4.108-7.446,6.547-8.987t13.993-4.108l47.244-11.554Q162.516,40.26,169.962,40.26Z" transform="translate(-0.5 159.5)" fill="url(#linear-gradient)"/>
        <path id="Path_149746" data-name="Path 149746" d="M168.415,13.343v17.2Q151.469,45.952,141.2,51.087T111.671,55.2q-33.379,39.541-58.8,39.541a40.792,40.792,0,0,1-26.19-9.5Q14.872,75.736,7.811,59.3T.75,22.586q0-16.433,10.912-36.46A163.352,163.352,0,0,1,39.906-51.232a159.618,159.618,0,0,1,37.1-27.987q19.771-10.656,36.717-10.656,12.068,0,19,3.723t6.933,10.4q0,5.135-5.906,11.811,9.757,2.054,13.352,6.8T150.7-39.807q0,12.325-5.777,31.068a155.1,155.1,0,0,1-15.791,35.176l4.622,4.622H137.6a18.6,18.6,0,0,0,8.6-2.182,57.292,57.292,0,0,0,7.574-4.622Q157.118,21.816,168.415,13.343ZM115.522-54.185Q94.211-41.347,79.062-30.948A176.107,176.107,0,0,0,53.386-9.894Q42.859.762,39.264,11.546,32.845,40.3,32.845,42.614q0,16.946,23.622,16.946,11.041,0,36.974-19a67.884,67.884,0,0,1-4.365-23.109,89.038,89.038,0,0,1,6.676-32.994Q102.427-32.36,115.522-54.185Z" transform="translate(287.336 232.891)" fill="#c11922"/>
        <path id="Path_149747" data-name="Path 149747" d="M168.415,13.343v17.2Q151.469,45.952,141.2,51.087T111.671,55.2q-33.379,39.541-58.8,39.541a40.792,40.792,0,0,1-26.19-9.5Q14.872,75.736,7.811,59.3T.75,22.586q0-16.433,10.912-36.46A163.352,163.352,0,0,1,39.906-51.232a159.618,159.618,0,0,1,37.1-27.987q19.771-10.656,36.717-10.656,12.068,0,19,3.723t6.933,10.4q0,5.135-5.906,11.811,9.757,2.054,13.352,6.8T150.7-39.807q0,12.325-5.777,31.068a155.1,155.1,0,0,1-15.791,35.176l4.622,4.622H137.6a18.6,18.6,0,0,0,8.6-2.182,57.292,57.292,0,0,0,7.574-4.622Q157.118,21.816,168.415,13.343ZM115.522-54.185Q94.211-41.347,79.062-30.948A176.107,176.107,0,0,0,53.386-9.894Q42.859.762,39.264,11.546,32.845,40.3,32.845,42.614q0,16.946,23.622,16.946,11.041,0,36.974-19a67.884,67.884,0,0,1-4.365-23.109,89.038,89.038,0,0,1,6.676-32.994Q102.427-32.36,115.522-54.185Z" transform="translate(453.718 232.891)" fill="#c11922"/>
        <path id="Path_149744" data-name="Path 149744" d="M120.658,75.112q-22.595,25.676-40.44,43.649T51.2,145.593q-11.169,8.858-15.277,8.858-6.676,0-15.021-10.784T6.656,116.194A100.934,100.934,0,0,1,.75,82.3Q.75,57.4,24.886,32.1A220.941,220.941,0,0,1,79.832-9.876q30.811-16.689,46.217-16.689,12.581,0,24.649,15.919,19.771-41.339,37.616-73.434t29.913-47.758q12.068-15.662,17.2-15.662,5.649,0,10.4,5.52a18.589,18.589,0,0,1,4.75,12.453q0,13.352-19.514,45.832T192.551-20.4a549.406,549.406,0,0,0-32.609,60.724q-13.608,29.913-13.608,55.332,0,23.109,14.892,23.109,8.987,0,22.6-10.142T222.592,74.6V93.342q-55.46,71.636-85.5,71.636-12.068,0-17.331-9.243T114.5,128.262A252.374,252.374,0,0,1,120.658,75.112Zm19-62.65q-22.852,7.7-53.663,24.777T48.764,60.733q-5.649,5.135-10.014,19.257T34.386,101.3a10.278,10.278,0,0,0,2.568,7.189,8.315,8.315,0,0,0,6.419,2.824q3.595,0,8.216-3.081A161.245,161.245,0,0,0,66.353,96.167Q76.495,87.18,79.576,84.612q4.365-3.851,19.385-16.561t21.953-19.9A75.421,75.421,0,0,0,132.725,32.1,66.038,66.038,0,0,0,139.658,12.462Z" transform="translate(620.099 172.149)" fill="#c11922"/>
      </g>
      <g id="Group_90236" data-name="Group 90236" transform="translate(463.752 31.354)">
        <path id="Path_149728" data-name="Path 149728" d="M254.066,340.02c-3.366-9.071-13.186-17.7-23.641-20.518,2.057-6.9-1.01-19.563-5.967-25.737-5.723-7.069-17.938-13.429-33.087-14.57a50.325,50.325,0,0,0-33.574,9.931,62.609,62.609,0,0,0-35.387-14.888,55.976,55.976,0,0,0-36.864,10.119,53.463,53.463,0,0,0-21.154,33.779c-2.713,15.357,4.545,44.366,38.66,54.428-.681,4.291-2.464,12.125-2.464,12.125l-5.365,30.177s22.035-20.379,39.1-27.746c10.1-4.881,30.35-13.682,50.625-7.148,6.549,2.11,13.577,7.189,15.518,13.516,2.167,7.018-2.975,15.3-2.975,15.3s15.937-.084,17.932,0c-.541-6.772-.879-16.008-.86-23.284,14.888,1.029,28.279-2.636,36.116-14.382C256.685,362.108,257.134,348.323,254.066,340.02Zm-39.128,41.053a11.381,11.381,0,0,0-2.038-7.013,18.527,18.527,0,0,0-5.256-4.976c-.954-.617-1.926-1.178-2.937-1.7a53.161,53.161,0,0,0-10.624-3.964,100.863,100.863,0,0,0-14.663-2.638,147.061,147.061,0,0,0-14.964-.916,242.875,242.875,0,0,0-30.131,1.665c-10.043,1.178-20.032,2.861-30.112,4.638a164.02,164.02,0,0,1,29.533-8.454c5.049-.973,10.156-1.647,15.3-2.17q7.716-.674,15.468-.635c10.343.242,20.78,1.383,30.712,4.806A45.764,45.764,0,0,1,207.662,366c.486.373.973.748,1.459,1.141a19.493,19.493,0,0,1,4.976,6.246A11.123,11.123,0,0,1,214.938,381.073Z" transform="translate(-63.875 -274.067)" fill="url(#linear-gradient-2)"/>
        <path id="Path_149729" data-name="Path 149729" d="M248.108,371.124c-7.837,11.746-21.228,15.412-36.116,14.382-.019,7.276.318,14.458.86,21.23-3.591-2.993-3.2-15.869-7.762-17.944-1.328-10.549-5.256-11.085-2.954-21.409,1.01.524,1.983,1.084,2.937,1.7a18.527,18.527,0,0,1,5.256,4.976,11.381,11.381,0,0,1,2.038,7.013,11.123,11.123,0,0,0-.841-7.686,19.493,19.493,0,0,0-4.976-6.246c-.486-.393-.973-.768-1.459-1.141a13.634,13.634,0,0,0,8.249-8.473,16.955,16.955,0,0,0-2.225-14.439A22.592,22.592,0,0,0,199.74,333.9c3.368-5.48,2.432-12.924-1.253-18.2-3.665-5.294-9.632-8.624-15.841-10.343-13.131-3.667-28.131-.73-38.548,8.061.037-4.1-2.413-7.782-5.126-10.83a49.113,49.113,0,0,0-69.821-3.423,53.327,53.327,0,0,1,13.823-14.814,55.976,55.976,0,0,1,36.864-10.119,62.609,62.609,0,0,1,35.387,14.888,50.325,50.325,0,0,1,33.574-9.931c15.15,1.141,27.364,7.5,33.087,14.57,4.957,6.174,8.024,18.836,5.967,25.737,10.455,2.823,20.275,11.447,23.641,20.518C254.561,348.323,254.112,362.108,248.108,371.124Z" transform="translate(-61.303 -274.067)" fill="url(#linear-gradient-3)" style="mix-blend-mode: soft-light;isolation: isolate"/>
      </g>
    </g>
  </g>
</svg>
