<svg width="222" height="60" viewBox="0 0 222 60" fill="none" xmlns="http://www.w3.org/2000/svg">
<rect x="2" y="2" width="56.2428" height="56.24" rx="28.12" stroke="url(#paint0_linear_2_9)" stroke-width="3"/>
<g clip-path="url(#clip0_2_9)">
<path fill-rule="evenodd" clip-rule="evenodd" d="M30.802 14.425C29.3521 14.433 28.1576 15.1517 26.7979 15.9699C26.6444 16.0623 26.4888 16.1559 26.3304 16.25L26.1705 16.3446C25.2571 16.884 24.4978 17.3324 23.8032 18.5567C22.9988 19.9755 23.041 22.3345 23.0728 24.1111C23.0801 24.5202 23.0869 24.8985 23.0827 25.2273L23.0799 25.6958L23.0826 25.2272C22.6664 25.4661 22.2444 25.6929 21.8261 25.9176C19.4492 27.1947 17.1919 28.4075 16.8051 31.4188C16.5677 33.2694 17.0158 36.4224 17.5356 37.4282C18.4767 39.2502 22.5203 41.539 24.4261 41.5392C26.1216 41.5406 28.2411 40.3677 29.9773 39.407L29.9775 39.4069C30.3712 39.189 30.7452 38.9821 31.0901 38.8022L33.8542 40.4489C35.2743 41.2941 36.7533 41.9257 38.4533 41.3337C38.6454 41.2672 39.3892 40.9807 39.6509 40.8587C40.6878 40.3762 42.4599 39.2719 42.983 38.8402C44.2823 37.7672 44.7007 36.5929 44.8284 35.2731C44.8343 35.2143 44.8417 35.1455 44.85 35.0683L44.85 35.0683C44.9033 34.5706 44.994 33.724 44.9865 32.9468C44.9708 32.392 44.9175 31.839 44.8271 31.2915C44.7507 30.6005 44.5252 29.9342 44.1663 29.3388C43.3785 27.974 41.3255 26.8528 39.7527 25.9939C39.3223 25.7588 38.9278 25.5434 38.6051 25.348L38.5998 28.7228C38.7843 28.84 39.0127 28.9669 39.2624 29.1056C40.2123 29.6332 41.4695 30.3316 41.7849 31.3193C42.3584 33.1125 42.1321 35.9715 40.2372 37.0604C40.0513 37.1666 39.8659 37.2751 39.6802 37.3837L39.6799 37.3839L39.6798 37.3839C39.1357 37.7022 38.5893 38.0218 38.0214 38.2914C37.8906 38.3534 37.287 38.5705 36.7382 38.4928C36.4145 38.4463 36.1654 38.3051 35.6659 38.022L35.6366 38.0054L31.7959 35.8001L34.0803 37.1113L35.8238 36.0843C37.3402 35.1901 38.4091 33.6451 38.594 31.8353L38.6076 21.8117C38.6174 20.2358 38.4294 18.7129 37.2242 17.5659C37.0224 17.3745 36.3518 16.8482 36.2026 16.7368C35.3387 16.0958 33.2757 15.0084 32.595 14.7603C32.1338 14.586 31.6505 14.477 31.1592 14.4364L31.1335 14.4355C31.0295 14.4283 30.9268 14.4249 30.8255 14.4249L30.8021 14.4241L30.802 14.425ZM31.0177 35.3533L35.1216 32.8721C35.2747 32.7129 35.3001 32.6106 35.3566 32.383C35.3684 32.3356 35.3816 32.2827 35.3975 32.2227C35.5334 31.689 35.6057 31.141 35.6129 30.5902L35.6082 26.9712C35.2436 26.7861 34.7747 26.4981 34.2671 26.1862L34.2671 26.1862C33.2994 25.5917 32.1909 24.9106 31.3948 24.6911C30.2346 24.3715 28.0548 25.7525 26.6109 26.6673L26.6109 26.6674C26.4222 26.7869 26.2461 26.8984 26.0865 26.9972L26.073 29.9519C26.0698 30.7118 26.0853 31.3686 26.1186 31.5679C26.2252 32.212 26.657 32.7577 27.2688 33.1279L29.6907 34.5903L29.6902 34.5911L31.0177 35.3533ZM35.6039 23.6652L35.6011 21.5133L35.6007 21.4839C35.5874 20.609 35.5842 20.4013 35.1566 19.7909C34.9456 19.5468 34.6977 19.3371 34.4219 19.1695C33.8778 18.8343 33.3189 18.5174 32.763 18.2021C32.6599 18.1436 32.5569 18.0852 32.4541 18.0267C31.958 17.7494 31.3971 17.6088 30.8288 17.6193L30.5518 17.6301L30.5519 17.6294C29.0845 17.7384 27.5884 18.6346 26.7227 19.603C26.0319 20.3756 26.067 21.8134 26.0935 22.8994L26.0935 22.8995C26.0986 23.111 26.1035 23.3092 26.1026 23.4865L26.0967 24.7595L26.1043 23.5516C26.4057 23.384 26.6915 23.2188 26.9666 23.0598C28.4836 22.1831 29.6746 21.4947 31.3679 21.6248C32.7009 21.7276 33.7733 22.4487 34.8003 23.1393C35.07 23.3206 35.3366 23.4999 35.6039 23.6652ZM24.7036 34.8418L27.9528 36.9216L27.9525 36.9222L28.1882 37.0733C27.9978 37.1607 27.7766 37.271 27.5354 37.3913L27.5353 37.3914C26.4264 37.9443 24.894 38.7084 23.9816 38.4304C22.9423 38.1139 20.6387 36.7225 20.0231 35.7675C19.3927 34.7885 19.5561 30.8042 21.0503 29.8883C21.1581 29.8222 21.2686 29.7538 21.3809 29.6843L21.381 29.6842C21.9256 29.3472 22.5151 28.9823 23.0624 28.7078L23.0513 30.5953C23.0444 31.6946 23.2773 32.8968 23.7435 33.7297C23.9214 34.0479 24.2051 34.5219 24.7036 34.8418Z" fill="url(#paint1_linear_2_9)"/>
</g>
<path d="M94.8901 39.3801C95.2835 39.3801 95.5894 39.4784 95.8079 39.6751C96.0265 39.8717 96.1357 40.1449 96.1357 40.4945C96.1357 40.866 96.0265 41.1501 95.8079 41.3468C95.5894 41.5435 95.2835 41.6418 94.8901 41.6418H80.2379C79.8445 41.6418 79.5276 41.5326 79.2873 41.314C79.0687 41.0955 78.9595 40.8223 78.9595 40.4945C78.9595 40.1668 79.0797 39.828 79.32 39.4784L92.4317 20.7943H80.2379C79.8445 20.7943 79.5386 20.696 79.32 20.4993C79.1015 20.3026 78.9923 20.0295 78.9923 19.6798C78.9923 19.3083 79.1015 19.0242 79.32 18.8276C79.5386 18.6309 79.8445 18.5325 80.2379 18.5325H94.5295C94.9229 18.5325 95.2288 18.6418 95.4474 18.8603C95.6877 19.0789 95.8079 19.352 95.8079 19.6798C95.8079 19.9858 95.6877 20.3135 95.4474 20.6632L82.3029 39.3801H94.8901Z" fill="url(#paint2_linear_2_9)"/>
<path d="M105.969 41.8713C104.461 41.8713 103.128 41.5326 101.97 40.8551C100.834 40.1777 99.9485 39.2162 99.3148 37.9706C98.7029 36.7031 98.397 35.239 98.397 33.5782C98.397 31.9174 98.7029 30.4641 99.3148 29.2185C99.9485 27.9511 100.834 26.9786 101.97 26.3012C103.128 25.6238 104.461 25.285 105.969 25.285C107.477 25.285 108.81 25.6238 109.968 26.3012C111.126 26.9786 112.011 27.9511 112.623 29.2185C113.257 30.4641 113.574 31.9174 113.574 33.5782C113.574 35.239 113.257 36.7031 112.623 37.9706C112.011 39.2162 111.126 40.1777 109.968 40.8551C108.81 41.5326 107.477 41.8713 105.969 41.8713ZM105.969 39.6751C107.542 39.6751 108.744 39.1615 109.575 38.1345C110.427 37.0855 110.853 35.5668 110.853 33.5782C110.853 31.6333 110.427 30.1364 109.575 29.0874C108.722 28.0166 107.52 27.4812 105.969 27.4812C104.417 27.4812 103.215 28.0166 102.363 29.0874C101.511 30.1364 101.085 31.6333 101.085 33.5782C101.085 35.5449 101.5 37.0527 102.33 38.1017C103.183 39.1506 104.396 39.6751 105.969 39.6751Z" fill="url(#paint3_linear_2_9)"/>
<path d="M124.151 41.8713C122.643 41.8713 121.31 41.5326 120.152 40.8551C119.016 40.1777 118.131 39.2162 117.497 37.9706C116.885 36.7031 116.579 35.239 116.579 33.5782C116.579 31.9174 116.885 30.4641 117.497 29.2185C118.131 27.9511 119.016 26.9786 120.152 26.3012C121.31 25.6238 122.643 25.285 124.151 25.285C125.659 25.285 126.992 25.6238 128.15 26.3012C129.308 26.9786 130.193 27.9511 130.805 29.2185C131.439 30.4641 131.756 31.9174 131.756 33.5782C131.756 35.239 131.439 36.7031 130.805 37.9706C130.193 39.2162 129.308 40.1777 128.15 40.8551C126.992 41.5326 125.659 41.8713 124.151 41.8713ZM124.151 39.6751C125.725 39.6751 126.926 39.1615 127.757 38.1345C128.609 37.0855 129.035 35.5668 129.035 33.5782C129.035 31.6333 128.609 30.1364 127.757 29.0874C126.905 28.0166 125.703 27.4812 124.151 27.4812C122.6 27.4812 121.398 28.0166 120.545 29.0874C119.693 30.1364 119.267 31.6333 119.267 33.5782C119.267 35.5449 119.682 37.0527 120.513 38.1017C121.365 39.1506 122.578 39.6751 124.151 39.6751Z" fill="url(#paint4_linear_2_9)"/>
<path d="M142.235 25.285C146.234 25.285 148.234 27.3829 148.234 31.5786V40.4945C148.234 40.8879 148.113 41.2048 147.873 41.4451C147.654 41.6855 147.348 41.8057 146.955 41.8057C146.562 41.8057 146.245 41.6855 146.005 41.4451C145.764 41.2048 145.644 40.8879 145.644 40.4945V38.9212C145.229 39.8608 144.595 40.5929 143.743 41.1174C142.891 41.62 141.907 41.8713 140.793 41.8713C139.766 41.8713 138.815 41.6637 137.941 41.2485C137.089 40.8333 136.411 40.2542 135.909 39.5112C135.406 38.7682 135.155 37.9487 135.155 37.0527C135.155 35.8508 135.461 34.9221 136.072 34.2665C136.684 33.5891 137.69 33.1083 139.088 32.8242C140.487 32.5183 142.432 32.3653 144.923 32.3653H145.644V31.2836C145.644 29.9725 145.371 29.0109 144.824 28.3991C144.3 27.7872 143.437 27.4812 142.235 27.4812C140.749 27.4812 139.241 27.8855 137.711 28.6941C137.121 29.0656 136.706 29.2513 136.466 29.2513C136.204 29.2513 135.985 29.153 135.81 28.9563C135.635 28.7596 135.548 28.5083 135.548 28.2024C135.548 27.8964 135.635 27.6342 135.81 27.4157C136.007 27.1753 136.313 26.9349 136.728 26.6945C137.493 26.2575 138.356 25.9188 139.318 25.6784C140.301 25.4162 141.273 25.285 142.235 25.285ZM141.153 39.7734C142.464 39.7734 143.535 39.3364 144.366 38.4622C145.218 37.5663 145.644 36.419 145.644 35.0204V34.0698H145.054C143.131 34.0698 141.667 34.1573 140.662 34.3321C139.656 34.485 138.935 34.7582 138.498 35.1516C138.083 35.5231 137.875 36.0803 137.875 36.8233C137.875 37.6755 138.181 38.3858 138.793 38.9539C139.427 39.5002 140.214 39.7734 141.153 39.7734Z" fill="url(#paint5_linear_2_9)"/>
<path d="M179.213 18.3687C179.606 18.3687 179.912 18.4998 180.13 18.762C180.349 19.0024 180.458 19.3302 180.458 19.7454V40.429C180.458 40.8442 180.338 41.1829 180.098 41.4451C179.879 41.6855 179.562 41.8057 179.147 41.8057C178.732 41.8057 178.371 41.62 178.065 41.2485L164.462 23.0561V40.429C164.462 40.8442 164.342 41.1829 164.101 41.4451C163.883 41.6855 163.577 41.8057 163.184 41.8057C162.79 41.8057 162.484 41.6855 162.266 41.4451C162.047 41.1829 161.938 40.8442 161.938 40.429V19.7454C161.938 19.3302 162.047 19.0024 162.266 18.762C162.506 18.4998 162.834 18.3687 163.249 18.3687C163.686 18.3687 164.058 18.5544 164.364 18.9259L177.934 37.1183V19.7454C177.934 19.3302 178.043 19.0024 178.262 18.762C178.502 18.4998 178.819 18.3687 179.213 18.3687Z" fill="url(#paint6_linear_2_9)"/>
<path d="M187.514 41.8057C187.099 41.8057 186.771 41.6855 186.531 41.4451C186.29 41.1829 186.17 40.8442 186.17 40.429V19.8437C186.17 19.4504 186.29 19.1335 186.531 18.8931C186.793 18.6527 187.132 18.5325 187.547 18.5325H199.479C199.872 18.5325 200.178 18.6309 200.396 18.8276C200.615 19.0242 200.724 19.3083 200.724 19.6798C200.724 20.0295 200.615 20.3026 200.396 20.4993C200.178 20.696 199.872 20.7943 199.479 20.7943H188.825V28.7596H198.823C199.216 28.7596 199.522 28.858 199.741 29.0546C199.959 29.2513 200.069 29.5354 200.069 29.9069C200.069 30.2565 199.959 30.5297 199.741 30.7264C199.522 30.9231 199.216 31.0214 198.823 31.0214H188.825V40.429C188.825 40.8442 188.705 41.1829 188.465 41.4451C188.246 41.6855 187.929 41.8057 187.514 41.8057Z" fill="url(#paint7_linear_2_9)"/>
<path d="M211.43 41.8057C211.014 41.8057 210.676 41.6855 210.413 41.4451C210.173 41.1829 210.053 40.8442 210.053 40.429V20.8271H203.005C202.612 20.8271 202.306 20.7287 202.088 20.5321C201.869 20.3354 201.76 20.0513 201.76 19.6798C201.76 19.3083 201.869 19.0242 202.088 18.8276C202.306 18.6309 202.612 18.5325 203.005 18.5325H219.821C220.214 18.5325 220.52 18.6309 220.739 18.8276C220.957 19.0242 221.067 19.3083 221.067 19.6798C221.067 20.0513 220.957 20.3354 220.739 20.5321C220.52 20.7287 220.214 20.8271 219.821 20.8271H212.774V40.429C212.774 40.8442 212.653 41.1829 212.413 41.4451C212.173 41.6855 211.845 41.8057 211.43 41.8057Z" fill="url(#paint8_linear_2_9)"/>
<defs>
<linearGradient id="paint0_linear_2_9" x1="19.2876" y1="5.19114" x2="41.417" y2="58.24" gradientUnits="userSpaceOnUse">
<stop stop-color="#0285FF"/>
<stop offset="1" stop-color="#012FCB"/>
</linearGradient>
<linearGradient id="paint1_linear_2_9" x1="29.301" y1="15.3856" x2="37.4388" y2="39.5041" gradientUnits="userSpaceOnUse">
<stop stop-color="#0285FF"/>
<stop offset="1" stop-color="#012FCB"/>
</linearGradient>
<linearGradient id="paint2_linear_2_9" x1="150.013" y1="24.088" x2="151.908" y2="39.7569" gradientUnits="userSpaceOnUse">
<stop stop-color="#0285FF"/>
<stop offset="1" stop-color="#012FCB"/>
</linearGradient>
<linearGradient id="paint3_linear_2_9" x1="150.013" y1="24.088" x2="151.908" y2="39.7569" gradientUnits="userSpaceOnUse">
<stop stop-color="#0285FF"/>
<stop offset="1" stop-color="#012FCB"/>
</linearGradient>
<linearGradient id="paint4_linear_2_9" x1="150.013" y1="24.088" x2="151.908" y2="39.7569" gradientUnits="userSpaceOnUse">
<stop stop-color="#0285FF"/>
<stop offset="1" stop-color="#012FCB"/>
</linearGradient>
<linearGradient id="paint5_linear_2_9" x1="150.013" y1="24.088" x2="151.908" y2="39.7569" gradientUnits="userSpaceOnUse">
<stop stop-color="#0285FF"/>
<stop offset="1" stop-color="#012FCB"/>
</linearGradient>
<linearGradient id="paint6_linear_2_9" x1="150.013" y1="24.088" x2="151.908" y2="39.7569" gradientUnits="userSpaceOnUse">
<stop stop-color="#0285FF"/>
<stop offset="1" stop-color="#012FCB"/>
</linearGradient>
<linearGradient id="paint7_linear_2_9" x1="150.013" y1="24.088" x2="151.908" y2="39.7569" gradientUnits="userSpaceOnUse">
<stop stop-color="#0285FF"/>
<stop offset="1" stop-color="#012FCB"/>
</linearGradient>
<linearGradient id="paint8_linear_2_9" x1="150.013" y1="24.088" x2="151.908" y2="39.7569" gradientUnits="userSpaceOnUse">
<stop stop-color="#0285FF"/>
<stop offset="1" stop-color="#012FCB"/>
</linearGradient>
<clipPath id="clip0_2_9">
<rect width="36.3897" height="36.3897" fill="white" transform="translate(5.29614 23.3518) rotate(-29.7497)"/>
</clipPath>
</defs>
</svg>
